<svg width="241" height="25" viewBox="0 0 241 25" fill="none" xmlns="http://www.w3.org/2000/svg">
<path d="M8.57909 24.786C6.46729 24.786 4.65245 24.2888 3.13459 23.2944C1.63873 22.2779 0.593823 20.8858 -0.00012207 19.118L1.9797 17.9579C2.39766 19.3942 3.16759 20.5212 4.28948 21.3388C5.41138 22.1343 6.85225 22.5321 8.61209 22.5321C10.3279 22.5321 11.6588 22.1564 12.6047 21.4051C13.5726 20.6317 14.0566 19.6152 14.0566 18.3556C14.0566 17.1403 13.6166 16.2232 12.7367 15.6045C11.8568 14.9858 10.4049 14.3449 8.38111 13.682C5.98333 12.8865 4.39948 12.2457 3.62955 11.7595C1.86971 10.6988 0.989787 9.16305 0.989787 7.15218C0.989787 5.1855 1.67172 3.63867 3.0356 2.51169C4.39948 1.36262 6.08232 0.788086 8.08414 0.788086C9.88797 0.788086 11.4498 1.26318 12.7697 2.21338C14.0896 3.14147 15.0685 4.33474 15.7064 5.79318L13.7596 6.88701C12.7037 4.32369 10.8119 3.04203 8.08414 3.04203C6.65427 3.04203 5.49937 3.39559 4.61945 4.10272C3.73954 4.80984 3.29958 5.79318 3.29958 7.05274C3.29958 8.20181 3.69554 9.06361 4.48747 9.63815C5.27939 10.2127 6.58828 10.7983 8.41411 11.3949C9.25003 11.6822 9.84398 11.8921 10.1959 12.0247C10.5699 12.1352 11.0979 12.3341 11.7798 12.6213C12.4837 12.8865 13.0007 13.1296 13.3307 13.3505C13.6606 13.5494 14.0566 13.8367 14.5185 14.2123C15.0025 14.5659 15.3435 14.9305 15.5415 15.3062C15.7614 15.6597 15.9484 16.1017 16.1024 16.632C16.2784 17.1403 16.3664 17.6927 16.3664 18.2893C16.3664 20.256 15.6514 21.836 14.2216 23.0293C12.7917 24.2004 10.9109 24.786 8.57909 24.786Z" fill="#3253FF"/>
<path d="M35.0192 1.18584H37.329V24.3883H35.0192V13.5494H22.4804V24.3883H20.1706V1.18584H22.4804V11.3618H35.0192V1.18584Z" fill="#3253FF"/>
<path d="M83.9917 1.18584C86.0595 1.18584 87.7863 1.88191 89.1722 3.27406C90.5581 4.6662 91.251 6.40086 91.251 8.47803C91.251 10.5552 90.5581 12.2899 89.1722 13.682C87.7863 15.0741 86.0595 15.7702 83.9917 15.7702H78.0522V24.3883H75.7424V1.18584H83.9917ZM83.9917 13.5826C85.4215 13.5826 86.5984 13.1075 87.5223 12.1573C88.4682 11.185 88.9412 9.95856 88.9412 8.47803C88.9412 6.99749 88.4682 5.78213 87.5223 4.83193C86.5984 3.85964 85.4215 3.3735 83.9917 3.3735H78.0522V13.5826H83.9917Z" fill="#3253FF"/>
<path d="M95.2055 15.2067V13.0854H107.084V15.2067H95.2055Z" fill="#3253FF"/>
<path d="M127.727 24.3883L125.582 18.6871H114.628L112.483 24.3883H110.041L118.917 1.18584H121.293L130.169 24.3883H127.727ZM115.452 16.4994H124.758L120.105 4.06957L115.452 16.4994Z" fill="white"/>
<path d="M145.938 12.3561C147.06 12.8423 147.951 13.5826 148.611 14.577C149.292 15.5492 149.633 16.6652 149.633 17.9247C149.633 19.7146 149.006 21.2394 147.753 22.4989C146.499 23.7585 144.981 24.3883 143.199 24.3883H133.135V1.18584H142.44C144.156 1.18584 145.619 1.80457 146.829 3.04203C148.039 4.2574 148.644 5.71584 148.644 7.41735C148.644 9.58291 147.742 11.2292 145.938 12.3561ZM142.44 3.3735H135.445V11.4612H142.44C143.518 11.4612 144.431 11.0745 145.179 10.3011C145.949 9.50556 146.334 8.54432 146.334 7.41735C146.334 6.31247 145.949 5.36228 145.179 4.56676C144.431 3.77125 143.518 3.3735 142.44 3.3735ZM143.199 22.2006C144.343 22.2006 145.311 21.7918 146.103 20.9742C146.917 20.1345 147.324 19.118 147.324 17.9247C147.324 16.7536 146.917 15.7481 146.103 14.9084C145.311 14.0687 144.343 13.6489 143.199 13.6489H135.445V22.2006H143.199Z" fill="white"/>
<path d="M167.786 24.3883L162.374 15.1073H155.907V24.3883H153.597V1.18584H162.836C164.75 1.18584 166.378 1.87086 167.72 3.24091C169.084 4.58886 169.765 6.22408 169.765 8.14657C169.765 9.71549 169.293 11.1187 168.347 12.3561C167.423 13.5715 166.235 14.3891 164.783 14.809L170.425 24.3883H167.786ZM155.907 3.3735V12.9196H162.836C164.112 12.9196 165.201 12.4556 166.103 11.5275C167.005 10.5773 167.456 9.45032 167.456 8.14657C167.456 6.82071 167.005 5.69374 166.103 4.76564C165.201 3.83755 164.112 3.3735 162.836 3.3735H155.907Z" fill="white"/>
<path d="M192.842 21.3057C190.532 23.6259 187.705 24.786 184.362 24.786C181.018 24.786 178.191 23.6259 175.882 21.3057C173.572 18.9633 172.417 16.1238 172.417 12.787C172.417 9.45032 173.572 6.62184 175.882 4.30159C178.191 1.95926 181.018 0.788086 184.362 0.788086C187.705 0.788086 190.532 1.95926 192.842 4.30159C195.152 6.62184 196.307 9.45032 196.307 12.787C196.307 16.1238 195.152 18.9633 192.842 21.3057ZM177.498 19.7146C179.346 21.5929 181.634 22.5321 184.362 22.5321C187.089 22.5321 189.377 21.5929 191.225 19.7146C193.073 17.8142 193.997 15.505 193.997 12.787C193.997 10.0691 193.073 7.77091 191.225 5.89262C189.377 3.99223 187.089 3.04203 184.362 3.04203C181.634 3.04203 179.346 3.99223 177.498 5.89262C175.651 7.77091 174.727 10.0691 174.727 12.787C174.727 15.505 175.651 17.8142 177.498 19.7146Z" fill="white"/>
<path d="M214.796 24.3883L212.651 18.6871H201.696L199.551 24.3883H197.109L205.985 1.18584H208.361L217.237 24.3883H214.796ZM202.521 16.4994H211.826L207.173 4.06957L202.521 16.4994Z" fill="white"/>
<path d="M229.112 1.18584C232.258 1.18584 234.854 2.31282 236.9 4.56676C238.967 6.79862 240.001 9.53871 240.001 12.787C240.001 16.0354 238.967 18.7865 236.9 21.0405C234.854 23.2723 232.258 24.3883 229.112 24.3883H220.203V1.18584H229.112ZM229.112 22.2006C231.642 22.2006 233.71 21.2946 235.316 19.4826C236.944 17.6706 237.758 15.4388 237.758 12.787C237.758 10.1353 236.944 7.90349 235.316 6.09149C233.71 4.2795 231.642 3.3735 229.112 3.3735H222.513V22.2006H229.112Z" fill="white"/>
<path fill-rule="evenodd" clip-rule="evenodd" d="M60.4483 2.78613H53.3324C47.8095 2.78613 43.3324 7.26329 43.3324 12.7861C43.3324 18.309 47.8095 22.7861 53.3324 22.7861H60.4483C65.9711 22.7861 70.4483 18.309 70.4483 12.7861C70.4483 7.26329 65.9711 2.78613 60.4483 2.78613ZM53.3324 0.786133C46.7049 0.786133 41.3324 6.15872 41.3324 12.7861C41.3324 19.4135 46.7049 24.7861 53.3324 24.7861H60.4483C67.0757 24.7861 72.4483 19.4135 72.4483 12.7861C72.4483 6.15872 67.0757 0.786133 60.4483 0.786133H53.3324Z" fill="white"/>
</svg>
